<svg xmlns="http://www.w3.org/2000/svg" width="200" height="107" fill="none" viewBox="0 0 200 107"><path fill="#fff" d="M184.005 62.222c-.753-3.345-4.156-5.371-7.461-4.455q-1.17.325-2.307.666-.274-1.485-.599-3.008c-2.989-14.05-8.634-27.415-10.065-30.686a1.27 1.27 0 0 0-1.167-.767c-2.592-.007-10.361.007-10.361.007a.79.79 0 0 0-.785.784c-.109 22.052-4.811 31.983-8.161 31.983-2.215 0-5.362-5.146-7.04-16.445-.869-5.843-1.094-11.555-1.119-15.547a.78.78 0 0 0-.784-.775h-11.201c0 4.41.216 11.127 1.25 18.085 1.045 7.036 2.703 12.74 4.93 16.962 4.232 8.02 9.928 9.705 13.964 9.705 5.647 0 13.18-3.068 17.174-17.56a121 121 0 0 1 1.642 6.745c.328 1.54.633 3.136.898 4.76-5.001 2.29-9.244 4.917-12.694 7.872-6.206 5.313-9.897 11.61-10.973 18.718-.892 5.895 1.658 11.566 6.659 14.802 2.52 1.632 5.348 2.445 8.179 2.445 2.83 0 5.663-.816 8.19-2.445 7.261-4.677 11.671-12.206 13.111-22.37.483-3.426.626-7.163.425-11.188a99 99 0 0 1 4.016-1.199c3.094-.854 4.986-3.965 4.281-7.096zm-28.323 31.777c-1.531.988-2.866.337-3.368.012-.601-.388-1.571-1.288-1.319-2.949.914-6.037 5.264-11.259 12.799-15.495-.247 7.72-2.358 14.724-8.11 18.433z"/><path fill="#fff" d="M106.106 68.75a5.97 5.97 0 0 1-4.432-1.96 63.44 63.44 0 0 1-16.548-42 .79.79 0 0 1 .79-.793H96.33c.43 0 .775.345.782.775a51.47 51.47 0 0 0 8.994 28.355 51.6 51.6 0 0 0 7.457-16.525 52 52 0 0 0 1.545-11.832.783.783 0 0 1 .782-.776h11.208a63.8 63.8 0 0 1-1.91 15.523c-2.532 10.086-7.584 19.505-14.613 27.238q-.261.287-.555.537l-.036.029a5.97 5.97 0 0 1-3.878 1.424zm87.984-3.504a5.91 5.91 0 1 0 0-11.82 5.91 5.91 0 0 0 0 11.82M77.146 24.659c.033-4.687.532-9.36 1.497-13.903a69 69 0 0 1 1.625-6.204 1.387 1.387 0 0 0-.89-1.723L71.136.072a1.387 1.387 0 0 0-1.765.89 80 80 0 0 0-1.95 7.41 81 81 0 0 0-1.738 15.602h-.016q.002.342.007.682c0 .165-.007.33-.007.497h.011c.232 16.327 5.295 31.896 14.694 45.185a1.39 1.39 0 0 0 1.954.31l7.011-5.141c.615-.45.747-1.31.308-1.935-8.052-11.446-12.36-24.858-12.494-38.916zm-60.969 13.69c-3.316-2.06-4.43-4.39-4.06-5.687.363-1.28 2.587-2.655 6.606-2.655h5.589a1.26 1.26 0 0 0 1.261-1.261v-9.523a1.26 1.26 0 0 0-1.261-1.261h-5.59c-11.015 0-16.62 5.887-18.19 11.397-1.98 6.946 1.668 14.492 9.294 19.226 3.278 2.035 4.606 4.457 4.225 5.799-.35 1.225-2.614 2.543-6.759 2.543h-6.03A1.26 1.26 0 0 0 0 58.188v9.523a1.26 1.26 0 0 0 1.261 1.261h6.031c7.312 0 15.97-2.964 18.344-11.288 1.981-6.95-1.732-14.541-9.458-19.335M43.574 23.41h-6.579c-.862 0-1.562.7-1.562 1.563v8.92c0 .863.7 1.563 1.562 1.563h6.579c2.11 0 4.03.814 5.48 2.133h-3.71c-8.58 0-15.576 6.895-15.71 15.422-.138 8.776 7.245 15.961 16.024 15.961h2.407c8.662 0 15.711-7.031 15.711-15.671v-9.688c0-11.157-9.046-20.202-20.202-20.202m4.49 33.517h-2.723a3.67 3.67 0 0 1-3.664-3.664c0-2.02 1.645-3.626 3.664-3.626h6.387V53.3c0 1.999-1.644 3.626-3.663 3.626"/></svg>